<svg xmlns="http://www.w3.org/2000/svg" viewBox="0 0 339.2 139">
  <linearGradient id="a" x1="-142" x2="28.1" y1="520.1" y2="522.5" gradientTransform="matrix(.7178 .6944 .6992 -.7128 -132.4 480.3)" gradientUnits="userSpaceOnUse">
    <stop offset="0" stop-color="#3a5fcd"/>
    <stop offset="1" stop-color="#3a5fcd"/>
  </linearGradient>
  <path fill="url(#a)" d="M280 89.9H102.3a20.8 20.8 0 01-20.8-20.7c0-11.3 9.4-20.6 20.8-20.6h177.5c11.5 0 20.8 9.2 20.8 20.6 0 11.4-9.3 20.7-20.8 20.7z"/>
  <linearGradient id="b" x1="-109.1" x2="15.4" y1="606.8" y2="606.8" gradientTransform="matrix(.7178 .6944 .6992 -.7128 -132.4 480.3)" gradientUnits="userSpaceOnUse">
    <stop offset="0" stop-color="#3a5fcd"/>
    <stop offset="0" stop-color="#1484ff"/>
    <stop offset="1" stop-color="#05d5ff"/>
    <stop offset="1" stop-color="#1484ff"/>
  </linearGradient>
  <path fill="url(#b)" d="M323.9 30.6H192.6c-8.5 0-15.4-7-15.4-15.3 0-8.4 7-15.3 15.4-15.3H324c8.4 0 15.3 6.9 15.3 15.3s-6.9 15.3-15.3 15.3z"/>
  <linearGradient id="c" x1="-159.7" x2="-35.2" y1="405.3" y2="405.3" gradientTransform="matrix(.7178 .6944 .6992 -.7128 -132.4 480.3)" gradientUnits="userSpaceOnUse">
    <stop offset="0" stop-color="#748df8"/>
    <stop offset="1" stop-color="#6fa7f8"/>
  </linearGradient>
  <path fill="url(#c)" d="M146.6 139H15.4C6.9 139 0 132.2 0 123.8c0-8.4 7-15.3 15.4-15.3h131.2c8.5 0 15.4 6.9 15.4 15.3s-7 15.2-15.4 15.2z"/>
</svg>
