<?xml version="1.0" encoding="utf-8"?>
<!-- Generator: Adobe Illustrator 24.0.2, SVG Export Plug-In . SVG Version: 6.00 Build 0)  -->
<svg version="1.1" id="Layer_1" xmlns="http://www.w3.org/2000/svg" xmlns:xlink="http://www.w3.org/1999/xlink" x="0px" y="0px"
	 viewBox="0 0 217.32 20.8" style="enable-background:new 0 0 217.32 20.8;" xml:space="preserve">
<style type="text/css">
	.st0{fill:#FFFFFF;}
</style>
<g>
	<g>
		<g>
			<path class="st0" d="M8.98,9.2l6.77-8.91h5.81l-7.87,9.95l8.15,10.35h-6.04l-6.83-8.97 M4.94,11.63v8.97H0V0.29h4.94V9.2"/>
			<path class="st0" d="M36.38,13.19l-2.52-7.43l-2.49,7.43h0.82l1.29,3.82h-3.41l-1.21,3.59h-5.17l7.34-20.3h5.73l7.34,20.3h-5.23
				l-1.21-3.59"/>
			<path class="st0" d="M59.97,8.97l3.53-8.68h5.81v20.3h-4.95V8.42l-2.2,6 M60.39,20.59h-4.55L51.27,8.39v12.21h-4.95V0.29h5.84
				l5.7,14.06"/>
			<path class="st0" d="M207.97,8.97l3.53-8.68h5.81v20.3h-4.95V8.42l-2.2,6 M208.38,20.6h-4.55l-4.57-12.21V20.6h-4.95V0.29h5.84
				l5.7,14.06"/>
			<path class="st0" d="M131.46,19.47c-1.59-0.89-2.85-2.13-3.79-3.72s-1.4-3.38-1.4-5.37c0-1.98,0.47-3.77,1.4-5.35
				s2.2-2.82,3.79-3.7S134.79,0,136.71,0c1.91,0,3.66,0.44,5.25,1.33s2.84,2.12,3.76,3.7c0.91,1.58,1.37,3.37,1.37,5.35
				c0,1.99-0.47,3.78-1.39,5.37c-0.93,1.59-2.18,2.83-3.76,3.72c-1.58,0.89-3.33,1.33-5.23,1.33
				C134.79,20.8,133.05,20.35,131.46,19.47z M140.59,14.66c0.97-1.08,1.46-2.51,1.46-4.28c0-1.79-0.49-3.22-1.46-4.29
				c-0.97-1.07-2.27-1.61-3.89-1.61c-1.64,0-2.95,0.53-3.92,1.59c-0.97,1.06-1.46,2.5-1.46,4.31c0,1.79,0.49,3.22,1.46,4.3
				c0.97,1.07,2.28,1.61,3.92,1.61C138.32,16.28,139.62,15.74,140.59,14.66z"/>
			<path class="st0" d="M168.14,20.59h-5.09l-8.27-12.52v12.52h-4.95V0.29h4.95l8.27,12.58 M163.05,5.66V0.29H168v12.88"/>
			<path class="st0" d="M175.94,19.47c-1.59-0.89-2.85-2.13-3.79-3.72c-0.93-1.59-1.4-3.38-1.4-5.37c0-1.98,0.47-3.77,1.4-5.35
				c0.94-1.58,2.2-2.82,3.79-3.7S179.28,0,181.19,0c1.91,0,3.66,0.44,5.25,1.33s2.84,2.12,3.76,3.7c0.92,1.58,1.37,3.37,1.37,5.35
				c0,1.99-0.46,3.78-1.39,5.37c-0.92,1.59-2.18,2.83-3.76,3.72c-1.58,0.89-3.33,1.33-5.24,1.33
				C179.28,20.8,177.53,20.35,175.94,19.47z M185.08,14.66c0.97-1.08,1.46-2.51,1.46-4.28c0-1.79-0.48-3.22-1.46-4.29
				c-0.97-1.07-2.27-1.61-3.89-1.61c-1.64,0-2.94,0.53-3.92,1.59c-0.97,1.06-1.46,2.5-1.46,4.31c0,1.79,0.48,3.22,1.46,4.3
				c0.97,1.07,2.28,1.61,3.92,1.61C182.81,16.28,184.11,15.74,185.08,14.66z"/>
			<path class="st0" d="M82.72,16.51h1.78v4.08h-5.23 M74.05,20.59h-2.07v-3.93l6.71-8.13h-6.65V4.45h12.32v3.93l-6.85,8.13"/>
			<path class="st0" d="M92.18,4.51l-0.02,11.8h2.34c1.87,0,3.33-0.51,4.37-1.53s1.56-2.47,1.56-4.34s-0.52-3.33-1.56-4.37
				c-0.71-0.71-1.62-1.18-2.73-1.41l0.02-4.32c1.59,0.14,3.01,0.55,4.26,1.21c1.6,0.85,2.84,2.04,3.72,3.57s1.32,3.3,1.32,5.31
				c0,1.99-0.44,3.75-1.32,5.29c-0.88,1.54-2.12,2.74-3.73,3.58c-1.61,0.85-3.47,1.27-5.59,1.27h-7.61V0.29h4.98"/>
			<path class="st0" d="M113.19,9.43V4.4h3.06c0.91,0,1.59,0.22,2.04,0.66c0.45,0.44,0.68,1.05,0.68,1.82
				c0,0.81-0.23,1.44-0.68,1.88c-0.28,0.28-0.65,0.47-1.11,0.57l-0.04,8.64l1.46,2.61h5.58l-4.69-8.04c0,0,0,0,0.01,0
				c1.53-0.28,2.61-1.2,3.37-2.26c0.76-1.06,1.14-2.26,1.14-3.62c0-1.19-0.28-2.28-0.84-3.25c-0.56-0.97-1.4-1.74-2.53-2.3
				c-0.97-0.48-2.12-0.75-3.44-0.82c-0.21-0.01-0.43-0.02-0.66-0.02h-3.32h-4.99v20.3h4.95v-7.66"/>
		</g>
	</g>
</g>
</svg>
