<svg version="1.1" id="Layer_1"
     xmlns="http://www.w3.org/2000/svg" x="0px" y="0px" viewBox="0 0 600 400"
     style="enable-background:new 0 0 600 400;" xml:space="preserve">
<style type="text/css">
	.st0{fill:#005F95;}
	.st1{fill:#FFFFFF;}
</style>
  <g>
			<path class="st1" d="M114.19,382.7l-2.48-0.11l-17.16-9.14l-6.77,0.26l-1.34-0.27l-0.43-0.2l-4.82-1.08l-3.02,0.41l-2.53,1.02
				l-2.86-0.41l-9-7.11l-1.07-1.88l-0.07-0.55l0-0.78l0.63-4.57l-0.1-0.14l-3.65-5.29l-0.25-2.82l0.43-0.95l3.3-1.61l0.75,0.18
				l4.13,0.22L80.62,346l4.23-0.53l3.27-0.83l-3.54-4.56l-0.51-1.02l-0.22-0.83l0.87-2.9l0.64-0.57l2.44-0.68l14.44,2.71l11.39-9
				l-12.73-16.67l-4.37-7.54l-13.33-6.7l0,0l-8.73-5.74l-12.52-5.38l-1.71-3.09l3.8-24.1l2.45-11.58l-13.36,1.73l-0.95-0.04
				l-0.84-0.17l-1.77-1.16l-7.4-10.46v-3.33l1.82-2.57l0.26-5.64l0.9-2.06L56.5,212.5l13.06-15.54l-9.82-2.43l-0.69-0.36L42,185.82
				l-0.72,1.48l-4.04,1.39l-1.41,0.18l-1.37-0.15l-0.72-0.26l-1.61-1.48l-2.06-4.39l-2.68-5.34L25,167.89l0.02-1.51l1.12-3.93
				l0.49-0.97l5.65-7.29l6.7-8.42l0.78-0.68l6.42-3.81l13.41-10.87l5.89-6.41l1.37-0.85l13.47-7.97l1.54-6.51l0.28-1.89l3.17-2.45
				l10.85,1.26l3.76,0.99l28.77,3.35l8.87,3.43l13.08,1.12l1.53,0.6l10.13,7.93l23.67,1.17l14.17,0.43l10.99,2.35l13.3,2.18
				l0.98,0.31l1.58,1.25l1.37,2.27l2.87,3.36l0.72-1.17l7.36-9.72l1.39-1l5.19-1.71l0.6-0.64l0.86-0.63l5.09-2.46l10.12-8.54
				l0.96-0.54l6.98-2.3l3.15-8.03l0.6-0.94l15.04-15.72l0.68-0.52l4.18-2.28l4.88-1.63l2.92,0.67l2.9,2.82l32.27-9.2l1.14-0.09
				l7.22,0.89l40.89,3.53l10.14-1.31l12.14-10.48l1.15-0.6l4.91-1.3l1.23-6.42l0.26-0.76l0.37-0.74l2.46-1.58l0.82-0.03l0.24,0
				l25.05,1.14l29.08,4.17v0l2.61,0.46l-1.11-1.8l-1.49-18.14l0-0.49l0.53-5.94l-0.45-1.41l1.53-3.49l9.35-4.28l0.79-0.19
				l10.79-6.22l1.43-0.41l0.8-0.01l16.63,0.67l20.03,4.33l0.89,0.36l4.62,2.81l1.32,3.06l-1.3,6.13l2.24,19.62l0.54,0.33l0.91,0.15
				l2.37,2.42l0.33,2.18l1.24,0.35l5.02,2.03l1.58,1.57l0.71,1.86l0.8,4.01l-0.18,1.7l-0.37,0.85l-0.6,0.88l-4.45,4.5l3.42,3.73
				l11.55,13.22l8.33,15.61l0.4,1.42l-0.23,1.77l-0.41,0.87l-2.98,1.61l-0.95-0.13l-0.91-0.28l-7.96-3.98l-5.51-1.04l-1.16-0.58
				l0,0.01l-5.95-3.43l-2.26-0.17l-0.89-0.21l-1.69-0.7l-0.87-0.55l-0.27,0.01l-0.51,0.34l-3,2.13l-5.79,3.3l-4.41,19.85l2.83,7.54
				l2.1,4.56l-1.8,3.97l-5.15,1.52l-0.82,0.12l-0.58-0.03l-14.35-2.08l-0.81-0.24l-3.85-1.81l-3.59,3.05l-0.8,0.48l-0.83,0.33
				l-0.98,0.2l-4.18,0.12l-0.55,2.74l-0.9,1.58l-19.17,17.18l-0.88,0.54l-14.67,5.71l-15.65,9.96l-1.53,0.7l-12.33,1.69
				l-14.69,20.84l8.1,9.28l8.68,7.59l0.98,2.29l-0.09,1.33l-3.58,17.55l-2.24,15.42l0.84,7.46l-0.58,10.04l-1.04,2.06l-1.73,0.73
				l-23.55,1.65l-0.96-0.09l-1.59,1.07l-1.18,0.46l-9.37,1.36l-0.13,0.19l-0.21,4.15l-1.63,2.45l-15.89,7.64l-13.04,5.44l-0.51,0.93
				l4.9,6.2l2.08-1.46l3.89,0.54l9.04,11.11l0.62,2.16l-0.1,0.84l-1.84,2.35l-1.13,0.4l-7.1,1.75l-5.32,4.17l-0.82,0.88l-1.21,0.88
				l0.73,1.95l3.28,13.99l8.6,7.9l1.22,0.8l0.86,0.89l0.35,0.56l0.33,2.3l-0.18,0.64l-0.55,1.04l-0.88,1.07l-0.91,0.73l-14.02,7.13
				l-20.91,5.7l-2.12-0.24l-9.62-5.16l-25.52-11.43l-4.39-3.16l-1.9,2.44l-10.91,9.25l-2.03,0.68l-0.88-0.11l-1.4-0.66l-9.74-8.38
				l-6.71-3.01l-12.7-8.06l-1.33-2.61l0.24-3.95l-4.9-4.93l-5.77-5.08l-0.92-1.59l-1.9-9.41l-1.77,2.44l-9.86,17.97L204,368.83
				l-1.43,0.85l-1.23,0.13l-18.53-2.14l-19.81,2.47l-0.99-0.05l-18.19-4.14l-8.15-2.84l0.02,0.08l0.07,0.79l-0.34,6.56l-1.18,2.18
				l-0.46,0.31l-9.55,5.43L114.19,382.7z M97.21,368.34l16,8.52l8.61-3.65l7.92-4.52l0.24-4.62l-1.08-4.76l3.75-3.36l12.91,4.5
				l17.22,3.9l20.34-2.45l17.56,2.03l19.04-20.49l9.66-17.69l5.54-7.65l4.97,0.54l0.75,1.73l0.21,0.75l0.67,4.85l1.64,8.01
				l5.26,4.63l5.88,5.92l0.83,2.21l-0.22,3.55l11.09,7.03l6.53,2.9l0.71,0.45l8.52,7.33l9.02-7.65l2.94-3.98l4-0.62l6.76,4.83
				l24.72,10.97l8.7,4.67l19.51-5.32l11.29-5.8l-8.86-8.15l-0.88-1.57l-1.56-6.85l-1.84-7.68l-1.26-3.26l0.78-3.19l2.75-2.3
				l0.71-0.8l6.97-5.19l0.44-0.15l4.63-1.14l-5.1-6.27l-1.25,0.88l-1.72,0.52l-1.36-0.03l-2.2-1.1l-7.25-9.18l-0.27-3.17l1.86-3.4
				l0.48-0.65l1.05-0.75l13.77-5.74l14.21-6.84l0.16-3.23l0.48-1.45l1.35-2.03l2.19-1.28l2.02-0.14l7.65-1.17l2.03-1.37l2.14-0.45
				l1.03,0.19l20.75-1.45l0.42-7.33l-0.84-7.08l0.01-0.75l2.33-15.96l3.43-16.84l-7.96-6.99l-9.72-11.13l-0.18-3.55l16.71-23.71
				l1.96-1.19l12.73-1.75l0.26-0.2l16.21-10.15l14.44-5.62l18.06-16.19l0.81-4.05l2.74-2.32l5.92-0.17l4.6-3.91l3.09-0.41l5.14,2.41
				l13.42,1.94l1.4-0.41l-0.83-1.82l-3.12-8.31l-0.17-1.26l0.11-0.97l4.77-21.47l1.38-1.88l6.77-3.86l3.97-2.78l1.53-0.49l1.8-0.05
				l1.2,0.23l0.81,0.34l0.93,0.61l0.87,0.36l2.44,0.19l1.22,0.38l6.56,3.79l5.22,0.99l0.75,0.25l2.91,1.46l-5.34-10.01l-10.91-12.37
				l-5.23-5.71l0.08-3.97l5.76-5.81l-0.51-2.58l-3.72-1.5l-2.55-0.66l-2.12-2.36l-0.32-2.13l-0.41-0.15l-2.13-1.32l-0.81-0.75
				l-0.61-1.48l-2.45-21.41l0.04-0.93l0.97-4.59l-2.46-1.5l-19.31-4.18l-15.61-0.59l-2.5,1.49l-8.09,4.6l-0.76,0.3l-0.9,0.21
				l-6.31,2.93l0.07,0.64l-0.56,6.27l1.36,16.53l2.48,2.1l0.81,1.13l2.74,6.88l-4.92,2.87l-1.34-1.66l-5.3-2.02l-2.75-0.53
				l-28.6-4.05l-23.19-1.04l-1.26,6.57l-2.09,2.24l-6.02,1.59l-12.29,10.61l-1.51,0.68l-11.92,1.47l-41.31-3.56l-6.74-0.83
				L304.82,88l-2.8-0.71l-2.83-2.76l-2.96,0.99l-3.07,1.72l-14.35,15l-3.43,8.76l-1.78,1.68l-7.73,2.55l-10.57,8.81l-4.93,2.38
				l-0.73,0.79l-1.21,0.77l-5.04,1.66l-6.73,8.88l-2.54,4.2l-4.65,0.38l-5.88-6.96l-0.91-1.5l-12.58-2.03l-10.88-2.32l-13.45-0.36
				l-24.65-1.21l-1.63-0.61l-10.17-7.97l-12.63-1.08l-0.79-0.18l-8.91-3.44l-28.3-3.23l-3.76-0.99l-7.52-0.85l-1.74,7.33l-1.33,1.81
				l-15.02,8.85l-5.91,6.38l-14.49,11.61l-5.74,3.42l-6.35,7.98l-5.29,6.83l-0.76,2.64l2.23,8.49l2.23,4.33l1.33,2.83l0.14-0.05
				l-0.22-0.69l4.01-3.47l21.59,10.59l13.35,3.18l1.54,4.65l-16.39,19.47l-10.59,10.07l-0.29,5.49l-0.52,1.51l-1.12,1.59l5.41,7.64
				l16.32-2.11l3.19,3.45l-3.27,15.41l-3.43,21.74l10.47,4.5l-0.03,0.08l0.58,0.16l9.14,6.02l13.44,6.69l1.21,1.13l4.71,8.13
				l14.14,18.47l-0.5,4.01l-14.64,11.57l-2.32,0.57l-10.03-1.88l2.92,3.76l-1.56,4.56l-8.06,2.03l-8.96,1.23l-8.91,1.28l-0.83-0.04
				l0.8,1.16l0.67,0.8l0.65,2.25l-0.64,4.65l6.53,5.16l2.01-0.71l3.89-0.52l1.01,0.04l6.31,1.5l6.94-0.26L97.21,368.34z"/>
    <g>
				<g>
					<path class="st1" d="M131.42,292.98l6.77-8.91H144l-7.87,9.95l8.15,10.35h-6.04l-6.83-8.97 M128.38,295.41v8.97h-4.94v-20.3
						h4.94v8.91"/>
          <path class="st1" d="M158.81,296.97l-2.52-7.43l-2.49,7.43h0.82l1.29,3.82h-3.41l-1.21,3.59h-5.17l7.34-20.3h5.73l7.34,20.3
						h-5.23l-1.21-3.59"/>
          <path class="st1" d="M182.41,292.75l3.53-8.68h5.81v20.3h-4.95V292.2l-2.2,6 M182.82,304.37h-4.55l-4.57-12.21v12.21h-4.95
						v-20.3h5.84l5.7,14.06"/>
          <path class="st1" d="M330.41,292.75l3.53-8.68h5.81v20.3h-4.95V292.2l-2.2,6 M330.82,304.38h-4.55l-4.57-12.21v12.21h-4.95
						v-20.3h5.84l5.7,14.06"/>
          <path class="st1" d="M253.89,303.25c-1.59-0.89-2.85-2.13-3.79-3.72c-0.94-1.59-1.4-3.38-1.4-5.37c0-1.98,0.47-3.77,1.4-5.35
						c0.94-1.58,2.2-2.82,3.79-3.7s3.34-1.33,5.25-1.33c1.91,0,3.66,0.44,5.25,1.33s2.84,2.12,3.76,3.7
						c0.91,1.58,1.37,3.37,1.37,5.35c0,1.99-0.47,3.78-1.39,5.37c-0.93,1.59-2.18,2.83-3.76,3.72c-1.58,0.89-3.33,1.33-5.23,1.33
						C257.23,304.58,255.49,304.13,253.89,303.25z M263.03,298.44c0.97-1.08,1.46-2.51,1.46-4.28c0-1.79-0.49-3.22-1.46-4.29
						c-0.97-1.07-2.27-1.61-3.89-1.61c-1.64,0-2.95,0.53-3.92,1.59c-0.97,1.06-1.46,2.5-1.46,4.31c0,1.79,0.49,3.22,1.46,4.3
						c0.97,1.07,2.28,1.61,3.92,1.61C260.76,300.06,262.06,299.52,263.03,298.44z"/>
          <path class="st1" d="M290.58,304.37h-5.09l-8.27-12.52v12.52h-4.95v-20.3h4.95l8.27,12.58 M285.49,289.44v-5.38h4.95v12.88"/>
          <path class="st1" d="M298.38,303.25c-1.59-0.89-2.85-2.13-3.79-3.72c-0.93-1.59-1.4-3.38-1.4-5.37c0-1.98,0.47-3.77,1.4-5.35
						c0.94-1.58,2.2-2.82,3.79-3.7s3.34-1.33,5.25-1.33c1.91,0,3.66,0.44,5.25,1.33s2.84,2.12,3.76,3.7
						c0.92,1.58,1.37,3.37,1.37,5.35c0,1.99-0.46,3.78-1.39,5.37c-0.92,1.59-2.18,2.83-3.76,3.72c-1.58,0.89-3.33,1.33-5.24,1.33
						C301.72,304.58,299.97,304.13,298.38,303.25z M307.52,298.44c0.97-1.08,1.46-2.51,1.46-4.28c0-1.79-0.48-3.22-1.46-4.29
						c-0.97-1.07-2.27-1.61-3.89-1.61c-1.64,0-2.94,0.53-3.92,1.59c-0.97,1.06-1.46,2.5-1.46,4.31c0,1.79,0.48,3.22,1.46,4.3
						c0.97,1.07,2.28,1.61,3.92,1.61C305.25,300.06,306.54,299.52,307.52,298.44z"/>
          <path class="st1" d="M205.15,300.29h1.78v4.08h-5.23 M196.49,304.37h-2.07v-3.93l6.71-8.13h-6.65v-4.08h12.32v3.93l-6.85,8.13"
          />
          <path class="st1" d="M214.62,288.29l-0.02,11.8h2.34c1.87,0,3.33-0.51,4.37-1.53c1.04-1.02,1.56-2.47,1.56-4.34
						c0-1.87-0.52-3.33-1.56-4.37c-0.71-0.71-1.62-1.18-2.73-1.41l0.02-4.32c1.59,0.14,3.01,0.55,4.26,1.21
						c1.6,0.85,2.84,2.04,3.72,3.57c0.88,1.53,1.32,3.3,1.32,5.31c0,1.99-0.44,3.75-1.32,5.29c-0.88,1.54-2.12,2.74-3.73,3.58
						c-1.61,0.85-3.47,1.27-5.59,1.27h-7.61v-20.3h4.98"/>
          <path class="st1" d="M235.63,293.21v-5.03h3.06c0.91,0,1.59,0.22,2.04,0.66c0.45,0.44,0.68,1.05,0.68,1.82
						c0,0.81-0.23,1.44-0.68,1.88c-0.28,0.28-0.65,0.47-1.11,0.57l-0.04,8.64l1.46,2.61h5.58l-4.69-8.04c0,0,0,0,0.01,0
						c1.53-0.28,2.61-1.2,3.37-2.26c0.76-1.06,1.14-2.26,1.14-3.62c0-1.19-0.28-2.28-0.84-3.25c-0.56-0.97-1.4-1.74-2.53-2.3
						c-0.97-0.48-2.12-0.75-3.44-0.82c-0.21-0.01-0.43-0.02-0.66-0.02h-3.32h-4.99v20.3h4.95v-7.66"/>
				</g>
      <g>
					<path class="st1" d="M307.58,203.16c0,0-10.49-18.95-16.77-23c0.76-1.4,0.7-3.17-0.3-4.54c-1-1.36-2.67-1.94-4.22-1.64
						c-1.97-7.18-16.97-22.86-16.97-22.86l-2.69,1.98c0,0,10.48,18.92,16.75,22.99c-0.77,1.41-0.73,3.19,0.29,4.57
						c1.01,1.37,2.69,1.95,4.26,1.64c1.99,7.19,16.96,22.85,16.96,22.85L307.58,203.16z"/>
        <path class="st1" d="M307.58,216.45l-2.69-1.98c0,0-15,15.68-16.97,22.86c-1.56-0.3-3.22,0.28-4.22,1.64
						c-1.01,1.37-1.06,3.14-0.3,4.54c-6.27,4.05-16.77,23-16.77,23l2.69,1.98c0,0,14.97-15.66,16.96-22.85
						c1.57,0.31,3.25-0.26,4.26-1.64c1.01-1.38,1.06-3.16,0.29-4.57C297.1,235.37,307.58,216.45,307.58,216.45z"/>
        <path class="st1" d="M195.56,153.07l-2.69-1.98c0,0-15,15.68-16.97,22.86c-1.56-0.3-3.22,0.28-4.22,1.64
						c-1.01,1.37-1.06,3.14-0.3,4.54c-6.27,4.05-16.77,23-16.77,23l2.69,1.98c0,0,14.97-15.66,16.96-22.85
						c1.57,0.31,3.25-0.26,4.26-1.64c1.01-1.38,1.06-3.16,0.29-4.57C185.09,171.99,195.56,153.07,195.56,153.07z"/>
        <path class="st1" d="M195.56,266.48c0,0-10.49-18.95-16.77-23c0.76-1.4,0.7-3.17-0.3-4.54c-1-1.36-2.67-1.94-4.22-1.64
						c-1.97-7.18-16.97-22.86-16.97-22.86l-2.69,1.98c0,0,10.48,18.92,16.75,22.99c-0.77,1.41-0.73,3.19,0.29,4.57
						c1.01,1.37,2.69,1.95,4.26,1.64c1.99,7.19,16.96,22.85,16.96,22.85L195.56,266.48z"/>
        <path class="st1" d="M277.27,225.52c1.69-4.94,2.62-10.24,2.62-15.74c0-7.37-1.65-14.37-4.59-20.64h-4.28
						c3.21,6.19,5.03,13.21,5.03,20.64c0,3.86-0.49,7.62-1.41,11.2l-7.37-12.74l-14.35-24.86h27.1c0-0.01-0.01-0.01-0.01-0.01
						c-1.27-1.73-1.78-3.76-1.66-5.74h-10.58c-8.96-10.23-22.1-16.71-36.74-16.71c-3.15,0-6.23,0.31-9.21,0.88l-0.14-0.08
						l-0.07,0.12c-14.8,2.9-27.22,12.51-33.97,25.52l-4.03-6.98c-0.28,1.04-0.73,2.05-1.4,2.96c-0.65,0.88-1.44,1.58-2.3,2.14
						l4.9,8.49c-1.7,4.96-2.64,10.28-2.64,15.81c0,9.73,2.89,18.78,7.82,26.4h-7.86c0.02,0.02,0.04,0.04,0.06,0.06
						c1.26,1.71,1.77,3.73,1.66,5.69h28.63h29.33h1.13l-7.3,12.64c-1.51,0.15-3.04,0.23-4.59,0.23c-8.93,0-17.25-2.61-24.26-7.11
						h-6.52c8.41,6.84,19.12,10.95,30.78,10.95c18.89,0,35.3-10.78,43.43-26.51l4.15,7.17c0.27-1.06,0.74-2.1,1.43-3.04
						c0.63-0.86,1.41-1.54,2.25-2.1L277.27,225.52z M194.62,236.18c-5.4-7.43-8.63-16.53-8.63-26.4c0-3.89,0.5-7.66,1.43-11.27
						l6.48,11.23l-0.02,0.03l15.24,26.4H194.62z M212.45,177.61l-15.22,26.37l-7.29-12.62c5.44-12.09,16.06-21.36,29.01-24.96
						l-6.47,11.21H212.45z M219.13,177.61l7.3-12.64c1.51-0.15,3.04-0.23,4.59-0.23c12.24,0,23.35,4.92,31.48,12.87h-12.91h-3.43
						H219.13z M243.08,253.15l6.48-11.22h0.04l15.25-26.41l7.29,12.6C266.7,240.24,256.06,249.54,243.08,253.15z"/>
				</g>
			</g>
		</g>
</svg>
