<svg version="1" xmlns="http://www.w3.org/2000/svg" width="1733.333" height="1733.333" viewBox="0 0 1300.000000 1300.000000"><path d="M898.5 1.5c-9.4 1.7-17.3 4.8-24.2 9.5-3.5 2.4-80.6 78.8-196.9 195.2C488 395.7 486.2 397.6 482.7 405c-1.9 4.1-4.1 10-4.8 13-1.9 7.9-1.7 23.2.5 30.5 9.8 33 44.2 51.6 76.7 41.5 15.3-4.7 4.9 5.2 208.6-198.9C900.6 154 954.3 99.5 957.9 94.4c6.7-9.9 9.1-17.5 9.8-30.4.6-12.8-1.1-21.1-6.4-31.3-9.1-17.4-25.7-28.7-46-31.7-8.1-1.2-8-1.2-16.8.5zM924.5 255.7c-10.4 1.5-24.8 7-34.2 13.3-6.5 4.4-517.3 514.9-522.8 522.5-5.8 8.1-9 14.7-12.1 25.2-2.3 7.6-2.7 10.7-2.7 22.3-.1 11.1.3 14.9 2.1 21.3 4.7 16.4 11.9 28.5 23.6 39.4 27.9 26.2 70.5 29.1 103.6 7 5.4-3.6 513.3-510.8 519.6-518.9 6-7.7 11.7-19.1 14.5-29.1 3-10.7 3.3-31.6.5-41.7-8.8-32-31.9-53.8-64.1-60.5-6.5-1.4-20.9-1.8-28-.8zM705.5 808.1c-7.8 1.2-11.6 2.4-20 6.7-6.6 3.3-19.1 15.6-198.3 194.6-126.5 126.4-192.6 193.1-195.3 197.1-8 12.2-11.4 29.4-8.5 43.9 5 25.6 24.9 44.5 51 48.7 13.5 2.1 30-1.7 42.1-9.7 2.8-1.8 91-89.4 196.2-194.6l191.1-191.3 4.1-8.5c12.1-25.5 7.2-52.7-13.2-71.7-12.8-11.9-31.9-17.8-49.2-15.2z"/></svg>